<svg xmlns="http://www.w3.org/2000/svg" viewBox="0 0 512 512" role="img" aria-label="Arkane">
  <rect width="512" height="512" rx="112" fill="#080a08"/>
  <path d="M256 60 414 128v118c0 106-61 172-158 206C159 418 98 352 98 246V128L256 60Z" fill="#111b15" stroke="#d2b463" stroke-width="14"/>
  <path d="M256 116 351 158v83c0 72-36 118-95 142-59-24-95-70-95-142v-83l95-42Z" fill="#17251c" stroke="#6fe3a6" stroke-width="8"/>
  <path d="M256 155 314 344h-39l-10-39h-55l-10 39h-39l58-189h37Zm-36 114h36l-18-70-18 70Z" fill="#efe5c1"/>
  <path d="M156 390h200" stroke="#d2b463" stroke-width="10" stroke-linecap="round"/>
</svg>
